/* XPM */
static char *display[] = {
/* columns rows colors chars-per-pixel */
"32 32 243 2",
"   c #1C1433",
".  c #2A2C35",
"X  c #2F3039",
"o  c #4C0429",
"O  c #591F20",
"+  c #4E2525",
"@  c #54292E",
"#  c #443C3F",
"$  c #13194A",
"%  c #0C0650",
"&  c #01075F",
"*  c #061F50",
"=  c #00145D",
"-  c #1C2243",
";  c #052056",
":  c #0E2555",
">  c #372B4D",
",  c #353941",
"<  c #333C4E",
"1  c #28205B",
"2  c #352B52",
"3  c #050F64",
"4  c #000E6C",
"5  c #001963",
"6  c #0E1368",
"7  c #141964",
"8  c #000E74",
"9  c #001C71",
"0  c #001D7D",
"q  c #082660",
"w  c #182267",
"e  c #012573",
"r  c #01287A",
"t  c #182771",
"y  c #18397D",
"u  c #242A62",
"i  c #202369",
"p  c #2C3367",
"a  c #253873",
"s  c #283870",
"d  c #283F7A",
"f  c #38436D",
"g  c #2C457A",
"h  c #344E70",
"j  c #3D5573",
"k  c #3F5C76",
"l  c #35517E",
"z  c #3A507E",
"x  c #3F6072",
"c  c #4C474C",
"v  c #45484F",
"b  c #4C4650",
"n  c #4B4E56",
"m  c #4E5258",
"M  c #59565E",
"N  c #644247",
"B  c #664E44",
"V  c #714A49",
"C  c #72514B",
"Z  c #7F5B4D",
"A  c #6C5255",
"S  c #735D58",
"D  c #656D59",
"F  c #78635A",
"G  c #454369",
"H  c #495B69",
"J  c #4A537F",
"K  c #555771",
"L  c #6F4D68",
"P  c #635360",
"I  c #4F6469",
"U  c #5F6974",
"Y  c #676B61",
"T  c #63696C",
"R  c #6D6C6E",
"E  c #647E6D",
"W  c #707174",
"Q  c #800511",
"!  c #A73636",
"~  c #9B6349",
"^  c #876657",
"/  c #9A715C",
"(  c #B06842",
")  c #A06E56",
"_  c #AB7459",
"`  c #B47153",
"'  c #BF7855",
"]  c #B5785A",
"[  c #BD7C5C",
"{  c #947667",
"}  c #8B7D76",
"|  c #FF5656",
" . c #CD774C",
".. c #CF794F",
"X. c #FF6565",
"o. c #FF6C6C",
"O. c #FF7D7D",
"+. c #779167",
"@. c #878C5D",
"#. c #ADBD51",
"$. c #839C64",
"%. c #A6806F",
"&. c #A0887D",
"*. c #8CA360",
"=. c #001B81",
"-. c #002486",
";. c #012A81",
":. c #00258B",
">. c #012C8C",
",. c #0B3486",
"<. c #0A358D",
"1. c #0D398E",
"2. c #173F8F",
"3. c #002D93",
"4. c #013294",
"5. c #093A95",
"6. c #003399",
"7. c #1F448E",
"8. c #1E4A8A",
"9. c #174590",
"0. c #244983",
"q. c #374A8E",
"w. c #2B5285",
"e. c #285489",
"r. c #365D81",
"t. c #32518E",
"y. c #345496",
"u. c #3F6085",
"i. c #424987",
"p. c #5E5F88",
"a. c #586684",
"s. c #546689",
"d. c #5C7683",
"f. c #586E9B",
"g. c #6D7085",
"h. c #757584",
"j. c #7F7E80",
"k. c #6E7095",
"l. c #677799",
"z. c #6F7D9B",
"x. c #6B7EA4",
"c. c #6E818C",
"v. c #79849A",
"b. c #818182",
"n. c #8B8B8C",
"m. c #8F8E90",
"M. c #8B8C99",
"N. c #89909A",
"B. c #939393",
"V. c #97969D",
"C. c #9E9B9C",
"Z. c #BE9380",
"A. c #BB9E8E",
"S. c #AA9D98",
"D. c #B7B782",
"F. c #BBA397",
"G. c #8A94A7",
"H. c #8693AE",
"J. c #8C95A9",
"K. c #8F9AA8",
"L. c #9C9CA5",
"P. c #919BB4",
"I. c #949CB9",
"U. c #9BA4B6",
"Y. c #94A1BA",
"T. c #A4A3A3",
"R. c #A3A6AC",
"E. c #ADACAC",
"W. c #B6ABA7",
"Q. c #A2A3B3",
"!. c #AFADB4",
"~. c #ACADBB",
"^. c #ADB1B4",
"/. c #ACB1BB",
"(. c #B3B4B6",
"). c #FF8383",
"_. c #FF8C8C",
"`. c #FF9392",
"'. c #FF9C9C",
"]. c #D0B8A9",
"[. c #FFA2A2",
"{. c #FFAAAA",
"}. c #FFB5B4",
"|. c #FFBFBF",
" X c #CFCFAD",
".X c #D5C0AD",
"XX c #D3D3B1",
"oX c #DFDAB4",
"OX c #DBDBBB",
"+X c #9CA8C1",
"@X c #A5ADC1",
"#X c #A9B1C0",
"$X c #ACB6CB",
"%X c #B2B6C0",
"&X c #C3C3C3",
"*X c #CCCACC",
"=X c #D5C6C6",
"-X c #D7CAC3",
";X c #DDCBC3",
":X c #D1CCC9",
">X c #D9D9C3",
",X c #DDDDCA",
"<X c #CDCED1",
"1X c #CFD2D5",
"2X c #D3D3D5",
"3X c #DFD4D4",
"4X c #D6D8D9",
"5X c #DCDCDE",
"6X c #FFC4C4",
"7X c #FFCCCB",
"8X c #E5DBD6",
"9X c #E4DEDD",
"0X c #FFD2D2",
"qX c #FED8D0",
"wX c #FEDCDC",
"eX c #E3E3CD",
"rX c #EBE8CD",
"tX c #E1E1D3",
"yX c #EBE3D3",
"uX c #E6E6DE",
"iX c #E9E4DC",
"pX c #ECEBDC",
"aX c #FFE9D7",
"sX c #FFF7DA",
"dX c #DDDFE3",
"fX c #E2E3E4",
"gX c #ECEBE3",
"hX c #EDECEB",
"jX c #FFE1E1",
"kX c #F2EEE1",
"lX c #F3ECEB",
"zX c #FFEAEA",
"xX c #F1F1E5",
"cX c #FCF7E5",
"vX c #FEF9E5",
"bX c #F2F2ED",
"nX c #FFFBEC",
"mX c #EFEFF0",
"MX c #F4F4F3",
"NX c #FCF4F3",
"BX c #FCFBF6",
"VX c #F6F7F8",
"CX c #FFFFFF",
/* pixels */
"CXCXCXCXCXCXbXhXCXCXCXBXvXBX9XVXCXCXCXCXCXCXCXCXCXCXCXCXCXCXCXCX",
"CXCXCXvXBXCXtXOXBXCXzXCXCXmXXXBXCXBXnXCXCXCXCXCXCXCXCXCXCXCXCXCX",
"CXCXCXVXCXCXCXCX0X6X).wX7X0XwXNXCXCXCXCXCXCXCXCXCXCXCXCXCXCXCXCX",
"CXCXhXXXbXCXwX6X}.O.| ).o.O._.{.}.7XCXCXCXCXCXCXCXCXCXCXCXVXhXCX",
"nXCXBXMXCX[._._.7X0XaXjX6XO.[.O.'.X.qXCXsXCXCXCXCXCXCXmXR.h.*XVX",
"vXCXCXCXaXO.X.0XcXCXCXMXCXCXCXCXwX}.NXCXCXCXCXCXCXVX^.j D V.VXCX",
"CXCXCX|.X.`.[.lX XgXVXD.VXCXVXCXBXvXCX,XuXCXCXVX1Xc.0.I K 2XCXCX",
"bXVXaX{.`.aXCXVXgXVXyXVXbXNX>XbXCXCXCXpXhXCXMX+Xd.#.0.p M.VXCXCX",
" XgX}._.wXnXBXtX,XvXoXMX>XgXeXhXCXBXCXCXCXVXK.u.r.+.a G 5XCXCXCX",
"xXwX_.'.NXCXnXMXNXBXpXrXMXBXCXCXCXnXCXCXCXN.E 8.e.k 7 V.CXCXCXCX",
"CXCXzXwXBXCXCXCXCXCXCXoXCXCXCXCXCXCXCXCX/.H $.5.w.f b VXCXCXCXCX",
"CXCXCXCXCXVXCXCXCXCXCXpXyXVXCXCXCXCXCX4Xw.9.*.$.@.A h.CXCXCXCXCX",
"CXCXCXCXgX,XCXCXCXCXCXMX.X].;XmXCXCX1XU Y T H h a 1 M.CXCXCXCXCX",
"CXCXCXCXuXeXCXCXCXCXCXVXA.( ] k.fXCX*XM Z ` B C P > L.CXCXCXCXCX",
"CXCXCXCXCXCXCXCXCXCXCXBX;X_  .2 P.CXhX&./ ' } [ Z.b h.CXCXCXCXCX",
"CXCXCXCXCXCXCXCXCXCXCXCXBX!.N V t.MX9X:XF.A.%...) ~ W.CXCXCXCXCX",
"CXCXCXCXCXCXCXCXCXCXCXCXCXI.7 $ 4.v.<XE.E.5XS.` ^ { MXCXCXCXCXCX",
"CXCXCXCXCXCXCXCXCXCXCXCXCXP.6 = 3.1.s.<XMX&X*X=XW *XCXCXCXCXCXCX",
"CXCXCXCXCXCXCXCXCXCXCXCXCX@Xt 9 =.3.,.$XCXCXCXfXR =XCXCXCXCXCXCX",
"CXCXCXCXCXCXCXCXCXCXCXCXCXdXz.i.3 =.;.Y.VXCXCXhXc.B.CXCXCXCXCXCX",
"CXCXCXCXCXCXCXCXCXCXCXCXCXCXmXhX#Xu 0 l.mXCXCXVXR.< v.mXCXCXCXCX",
"CXCXCXCXCXCXCXCXCXCXCXCXCXCXCXCXCX<Xg g fXCXCXCX2Xn 3.y J.MXCXCX",
"CXCXCXCXCXCXCXCXCXCXCXCXCXCXCXCXCXhXx.e ~.CXCXCXMXn.: r q.2XCXCX",
"CXCXCXCXCXCXCXCXCXCXCXCXCXCXCXCXCXCXH.;.r.mXCXCXCX<Xv e i.fXCXCX",
"CXCXCXCXCXCXCXCXCXCXCXCXCXCXCXCXCXCXU.<.>.v.VXCXCXhXn.- p.VXCXCX",
"CXCXCXCXCXCXCXCXCXCXCXCXCXCXCXCXCXCX%X0.6.2.J.VXCXMX!.c S 8XCXCX",
"CXCXCXCXCXCXCXCXCXCXCXCXCXCXCXCXCXCX*Xy.6.6.<.a.(.(.j.# F fXCXCX",
"CXCXCXCXCXCXCXCXCXCXCXCXCXCXCXCXCXCXMXf.4.6.6.4.e * * 5 i Q.MXCX",
"CXCXCXCXCXCXCXCXCXCXCXCXCXCXCXCXCXCXCX#X2.6.6.6.6.6.6.:.8 7 !.BX",
"CXCXCXCXCXCXCXCXCXCXCXCXCXCXCXCXCXCXCX9XL w 3.6.6.6.6.:.8 & g.hX",
"CXCXCXCXCXCXCXCXCXCXCXCXCXCXCXCXCXCXCX3X! Q   q r -.=.4 % o @ T.",
"CXCXCXCXCXCXCXCXCXCXCXCXCXCXCXCXCXCXCXVXlX=XC.W m , . X # O + E."
};
